<?xml version="1.0" encoding="UTF-8"?>
<svg width="24px" height="24px" viewBox="0 0 24 24" version="1.1" xmlns="http://www.w3.org/2000/svg" xmlns:xlink="http://www.w3.org/1999/xlink">
    <!-- Generator: Sketch 60 (88103) - https://sketch.com -->
    <title>09 Icons / Social / RSS</title>
    <desc>Created with Sketch.</desc>
    <g stroke="none" stroke-width="1" fill="none" fill-rule="evenodd">
        <path fill="white" d="M6.05737682e-13,8 C8.836556,8 16,15.163444 16,24 L16,24 L12,24 C12,17.372583 6.627417,12 6.05737682e-13,12 L6.05737682e-13,12 Z M0,0 C13.254834,0 24,10.745166 24,24 L24,24 L20,24 C20,18.6956702 17.8928632,13.6085919 14.1421356,9.85786438 C10.3914081,6.10713681 5.3043298,4 0,4 L0,4 Z M4,16 C6.209139,16 8,17.790861 8,20 C8,22.209139 6.209139,24 4,24 C1.790861,24 -6.06181771e-13,22.209139 -6.06181771e-13,20 C-6.06181771e-13,17.790861 1.790861,16 4,16 Z"></path>
        <path fill="#000000" d="M6.05737682e-13,8 C8.836556,8 16,15.163444 16,24 L16,24 L12,24 C12,17.372583 6.627417,12 6.05737682e-13,12 L6.05737682e-13,12 Z M0,0 C13.254834,0 24,10.745166 24,24 L24,24 L20,24 C20,18.6956702 17.8928632,13.6085919 14.1421356,9.85786438 C10.3914081,6.10713681 5.3043298,4 0,4 L0,4 Z M4,16 C6.209139,16 8,17.790861 8,20 C8,22.209139 6.209139,24 4,24 C1.790861,24 -6.06181771e-13,22.209139 -6.06181771e-13,20 C-6.06181771e-13,17.790861 1.790861,16 4,16 Z"></path>
    </g>
</svg>