<?xml version="1.0" encoding="UTF-8"?>
<svg width="24px" height="24px" viewBox="0 0 24 24" version="1.1" xmlns="http://www.w3.org/2000/svg" xmlns:xlink="http://www.w3.org/1999/xlink">
    <!-- Generator: Sketch 56 (81588) - https://sketch.com -->
    <title>09 Icons / Arrow / Double Arrow / Left / Default Copy</title>
    <desc>Created with Sketch.</desc>
    <g stroke="none" stroke-width="1" fill="none" fill-rule="evenodd">
        <path d="M10.696421,11.5 L5.26615539,16.6757978 C5.17794795,16.7598718 5.17794795,16.8961826 5.26615539,16.9802565 L5.74529647,17.4369445 C5.83350391,17.5210185 5.97651642,17.5210185 6.06472386,17.4369445 L12.1338442,11.6522293 C12.1779479,11.6101924 12.1999998,11.5550962 12.1999998,11.5 C12.1999998,11.4449038 12.1779479,11.3898076 12.1338442,11.3477707 L6.06472386,5.56305546 C5.97651642,5.47898151 5.83350391,5.47898151 5.74529647,5.56305546 L5.26615539,6.0197435 C5.17794795,6.10381745 5.17794795,6.24012825 5.26615539,6.3242022 L10.696421,11.5 L10.696421,11.5 Z" fill="#000000" transform="translate(8.700000, 11.500000) scale(-1, 1) rotate(-540.000000) translate(-8.700000, -11.500000) "></path>
        <path d="M16.696421,11.5 L11.2661554,16.6757978 C11.1779479,16.7598718 11.1779479,16.8961826 11.2661554,16.9802565 L11.7452965,17.4369445 C11.8335039,17.5210185 11.9765164,17.5210185 12.0647239,17.4369445 L18.1338442,11.6522293 C18.1779479,11.6101924 18.1999998,11.5550962 18.1999998,11.5 C18.1999998,11.4449038 18.1779479,11.3898076 18.1338442,11.3477707 L12.0647239,5.56305546 C11.9765164,5.47898151 11.8335039,5.47898151 11.7452965,5.56305546 L11.2661554,6.0197435 C11.1779479,6.10381745 11.1779479,6.24012825 11.2661554,6.3242022 L16.696421,11.5 L16.696421,11.5 Z" fill="#000000" transform="translate(14.700000, 11.500000) scale(-1, 1) rotate(-540.000000) translate(-14.700000, -11.500000) "></path>
    </g>
</svg>