<?xml version="1.0" encoding="UTF-8"?>
<svg width="24px" height="24px" viewBox="0 0 24 24" version="1.1" xmlns="http://www.w3.org/2000/svg" xmlns:xlink="http://www.w3.org/1999/xlink">
    <!-- Generator: Sketch 56 (81588) - https://sketch.com -->
    <title>09 Icons / Arrow / Double Arrow / Right / Default Copy</title>
    <desc>Created with Sketch.</desc>
    <g stroke="none" stroke-width="1" fill="none" fill-rule="evenodd">
        <path d="M17.2964214,11.5 L11.8661558,16.6757978 C11.7779483,16.7598718 11.7779483,16.8961826 11.8661558,16.9802565 L12.3452969,17.4369445 C12.4335043,17.5210185 12.5765168,17.5210185 12.6647242,17.4369445 L18.7338446,11.6522293 C18.7779483,11.6101924 18.8000002,11.5550962 18.8000002,11.5 C18.8000002,11.4449038 18.7779483,11.3898076 18.7338446,11.3477707 L12.6647242,5.56305546 C12.5765168,5.47898151 12.4335043,5.47898151 12.3452969,5.56305546 L11.8661558,6.0197435 C11.7779483,6.10381745 11.7779483,6.24012825 11.8661558,6.3242022 L17.2964214,11.5 L17.2964214,11.5 Z" fill="#000000" transform="translate(15.300000, 11.500000) rotate(-540.000000) translate(-15.300000, -11.500000) "></path>
        <path d="M5.94099749,16.656052 C5.75300109,16.8352387 5.75300109,16.781324 5.94099749,16.9605107 L6.42013857,17.4171987 C6.59633563,17.5511465 6.65135852,17.5012727 6.73956596,17.4171987 L12.8086863,11.6324835 C12.8527901,11.5904465 12.8748419,11.5353504 12.8748419,11.4802542 C12.8748419,11.425158 12.8527901,11.3700618 12.8086863,11.3280248 L6.73956596,5.54330963 C6.65135852,5.45923569 6.50834601,5.45923569 6.42013857,5.54330963 L5.94099749,5.99999768 C5.85279005,6.08407162 5.85279005,6.22038242 5.94099749,6.30445637 L11.3712631,11.4802542 L5.94099749,16.656052 Z" fill="#000000" transform="translate(9.337421, 11.490127) rotate(-540.000000) translate(-9.337421, -11.490127) "></path>
    </g>
</svg>