<?xml version="1.0" encoding="UTF-8"?>
<svg width="24px" height="24px" viewBox="0 0 24 24" version="1.1" xmlns="http://www.w3.org/2000/svg" xmlns:xlink="http://www.w3.org/1999/xlink">
    <!-- Generator: Sketch 56 (81588) - https://sketch.com -->
    <title>09 Icons / Ellipses Copy</title>
    <desc>Created with Sketch.</desc>
    <g stroke="none" stroke-width="1" fill="none" fill-rule="evenodd" opacity="0.8">
        <g transform="translate(11.000000, 4.000000)" fill="#000000" fill-rule="nonzero">
            <g>
                <g>
                    <path d="M1.4,9.5 C0.6,9.5 0,8.8 0,8 C0,7.2 0.7,6.5 1.5,6.5 C2.3,6.5 3,7.2 3,8 C3,8.8 2.3,9.5 1.4,9.5 L1.4,9.5 Z M1.4,3 C0.6,3 0,2.3 0,1.5 C0,0.7 0.7,0 1.5,0 C2.3,0 3,0.7 3,1.5 C3,2.3 2.3,3 1.4,3 L1.4,3 Z M1.6,13 C2.4,13 3,13.7 3,14.5 C3,15.3 2.3,16 1.5,16 C0.7,16 0,15.3 0,14.5 C0,13.7 0.7,13 1.6,13 L1.6,13 Z"></path>
                </g>
            </g>
        </g>
    </g>
</svg>