<?xml version="1.0" encoding="utf-8"?>
<svg version="1.1" xmlns="http://www.w3.org/2000/svg" xmlns:xlink="http://www.w3.org/1999/xlink" x="0px" y="0px"
	 width="60px" height="60px" viewBox="0 0 60 60" style="enable-background:new 0 0 60 60;" xml:space="preserve">
<g>
	<ellipse fill="#979797" cx="30.7" cy="22.3" rx="11.5" ry="11.6"/>
	<g>
		<ellipse fill="none" cx="30.7" cy="22.3" rx="11.5" ry="11.6"/>
		<path fill="#979797" d="M29.9,37.1c-9,0-17,3.9-21.4,10.1c-0.5,0.7-1,1.4-1.4,2.1c0.5,0.7,1.1,1.3,1.7,1.9c1,1,2.1,2,3.3,2.8
			c5,3.7,11.2,6,17.9,6s12.9-2.2,17.9-6c1.2-0.9,2.2-1.8,3.3-2.8c0.3-0.3,0.6-0.6,0.9-0.9c-0.4-0.7-0.8-1.4-1.3-2.1
			C46.3,41.6,38.6,37.1,29.9,37.1z"/>
		<path fill="#D8D8D8" d="M30,0C13.4,0,0,13.4,0,30c0,0.5,0,1,0,1.5c0,0.2,0,0.3,0,0.5c0,0.3,0,0.7,0.1,1c0,0.2,0,0.4,0.1,0.6
			c0,0.3,0.1,0.6,0.1,0.9c0,0.2,0.1,0.4,0.1,0.6c0,0.3,0.1,0.6,0.1,0.8c0,0.2,0.1,0.4,0.1,0.6c0.1,0.3,0.1,0.5,0.2,0.8
			c0,0.2,0.1,0.4,0.1,0.6c0.1,0.3,0.2,0.6,0.2,0.8c0.1,0.2,0.1,0.4,0.2,0.5c0.1,0.3,0.2,0.6,0.3,0.9c0.1,0.1,0.1,0.3,0.2,0.4
			c0.2,0.4,0.3,0.8,0.5,1.2c0,0,0,0,0,0c0.2,0.4,0.4,0.8,0.6,1.3c0.1,0.1,0.1,0.3,0.2,0.4c0.1,0.3,0.3,0.6,0.4,0.8
			c0.1,0.2,0.2,0.3,0.3,0.5c0.1,0.2,0.3,0.5,0.4,0.7c0.1,0.2,0.2,0.3,0.3,0.5c0.1,0.2,0.3,0.5,0.4,0.7c0.1,0.2,0.2,0.3,0.3,0.5
			c0.2,0.2,0.3,0.4,0.5,0.7C5.9,47.8,6,48,6.1,48.1c0.2,0.2,0.3,0.4,0.5,0.7c0.1,0.1,0.2,0.3,0.3,0.4c0,0,0.1,0.1,0.1,0.1
			c0.4-0.7,0.9-1.4,1.4-2.1c4.5-6.2,12.4-10.1,21.4-10.1c8.8,0,16.5,4.5,20.9,11.1c0.5,0.7,0.9,1.4,1.3,2.1c0,0,0,0,0.1-0.1
			c0.1-0.1,0.3-0.3,0.4-0.4c0.2-0.2,0.4-0.4,0.5-0.6c0.1-0.2,0.3-0.3,0.4-0.5c0.2-0.2,0.3-0.4,0.5-0.6c0.1-0.2,0.2-0.3,0.4-0.5
			c0.2-0.2,0.3-0.4,0.5-0.6c0.1-0.2,0.2-0.4,0.3-0.5c0.1-0.2,0.3-0.4,0.4-0.7c0.1-0.2,0.2-0.4,0.3-0.5c0.1-0.2,0.3-0.4,0.4-0.7
			c0.1-0.2,0.2-0.4,0.3-0.6c0.1-0.2,0.2-0.5,0.4-0.7c0.1-0.2,0.2-0.4,0.3-0.6c0.1-0.2,0.2-0.5,0.3-0.7c0.1-0.2,0.2-0.4,0.3-0.6
			c0.1-0.2,0.2-0.5,0.3-0.7c0.1-0.2,0.2-0.4,0.2-0.6c0.1-0.2,0.2-0.5,0.3-0.7c0.1-0.2,0.1-0.4,0.2-0.6c0.1-0.3,0.1-0.5,0.2-0.8
			c0.1-0.2,0.1-0.4,0.2-0.6c0.1-0.3,0.1-0.5,0.2-0.8c0-0.2,0.1-0.4,0.1-0.6c0.1-0.3,0.1-0.5,0.1-0.8c0-0.2,0.1-0.4,0.1-0.6
			c0-0.3,0.1-0.6,0.1-0.9c0-0.2,0.1-0.4,0.1-0.6c0-0.3,0.1-0.7,0.1-1c0-0.2,0-0.3,0-0.5c0-0.5,0-1,0-1.5C60,13.4,46.6,0,30,0z
			 M30.7,33.9c-6.4,0-11.5-5.2-11.5-11.6c0-6.4,5.2-11.6,11.5-11.6s11.5,5.2,11.5,11.6C42.3,28.7,37.1,33.9,30.7,33.9z"/>
	</g>
</g>
</svg>
