<?xml version="1.0" encoding="UTF-8"?>
<svg width="24px" height="24px" viewBox="0 0 24 24" version="1.1" xmlns="http://www.w3.org/2000/svg" xmlns:xlink="http://www.w3.org/1999/xlink">
    <title>09 Icons / General / Calendar </title>
    <g id="09-Icons-/-General-/-Calendar-" stroke="none" stroke-width="1" fill="none" fill-rule="evenodd">
        <path d="M9,3 L9,5 L15,5 L15,3 L16,3 L16,5 L20,5 L20,21 L4,21 L4,5 L8,5 L8,3 L9,3 Z M19,10 L5,10 L5,20 L19,20 L19,10 Z M8,6 L5,6 L5,9 L19,9 L19,6 L16,6 L16,7 L15,7 L15,6 L9,6 L9,7 L8,7 L8,6 Z" id="Shape" fill="#000000"></path>
    </g>
</svg>