<?xml version="1.0" encoding="UTF-8"?>
<svg width="24px" height="24px" viewBox="0 0 24 24" version="1.1" xmlns="http://www.w3.org/2000/svg" xmlns:xlink="http://www.w3.org/1999/xlink">
    <!-- Generator: Sketch 56 (81588) - https://sketch.com -->
    <title>09 Icons / Calendar  Copy</title>
    <desc>Created with Sketch.</desc>
    <g stroke="none" stroke-width="1" fill="none" fill-rule="evenodd">
        <path d="M4,20 L20,20 L20,5 L4,5 L4,20 Z M5,8.001 L19,8.001 L19,6 L5,6 L5,8.001 Z M5,19 L19,19 L19,9 L5,9 L5,19 Z" fill="#000000"></path>
        <polygon fill="#000000" points="7 13 9 13 9 11 7 11"></polygon>
        <polygon fill="#000000" points="11 13 13 13 13 11 11 11"></polygon>
        <polygon fill="#000000" points="15 13 17 13 17 11 15 11"></polygon>
        <polygon fill="#000000" points="15 17 17 17 17 15 15 15"></polygon>
        <polygon fill="#000000" points="11 17 13 17 13 15 11 15"></polygon>
        <polygon fill="#000000" points="7 17 9 17 9 15 7 15"></polygon>
    </g>
</svg>