<?xml version="1.0" encoding="UTF-8"?>
<svg width="24px" height="24px" viewBox="0 0 24 24" version="1.1" xmlns="http://www.w3.org/2000/svg" xmlns:xlink="http://www.w3.org/1999/xlink">
    <!-- Generator: Sketch 56 (81588) - https://sketch.com -->
    <title>09 Icons / Error Copy</title>
    <desc>Created with Sketch.</desc>
    <g stroke="none" stroke-width="1" fill="none" fill-rule="evenodd">
        <g transform="translate(3.000000, 3.000000)" stroke="#F64D43">
            <path d="M9,17.5 C4.3,17.5 0.5,13.7 0.5,9 C0.5,4.3 4.3,0.5 9,0.5 C13.7,0.5 17.5,4.3 17.5,9 C17.5,13.7 13.7,17.5 9,17.5 Z M9,17.5 C13.7,17.5 17.5,13.7 17.5,9 C17.5,4.3 13.7,0.5 9,0.5 C4.3,0.5 0.5,4.3 0.5,9 C0.5,13.7 4.3,17.5 9,17.5 Z"></path>
            <path d="M9,4 L9,11"></path>
            <path d="M9,13 L9,14"></path>
        </g>
    </g>
</svg>