<svg width="24" height="24" viewBox="0 0 24 24" xmlns="http://www.w3.org/2000/svg"><path d="M11.878 19.149a1.489 1.489 0 011.478 1.671v1.254a1.489 1.489 0 11-2.967.181v-1.618c0-.822.667-1.488 1.489-1.488zm-5.265-4.726a1.489 1.489 0 011.479 1.661v1.276a1.489 1.489 0 11-2.968.17v-1.618c0-.822.667-1.489 1.489-1.489zm10.518-3.635c.774 0 1.41.59 1.482 1.345l.007.144v5.265l-.001-.001-.006.133a1.489 1.489 0 11-2.96-.315v-4.91a1.489 1.489 0 011.479-1.66zm-5.253-4.725a1.489 1.489 0 011.479 1.66v8.287a1.489 1.489 0 11-2.968.172v-8.63c0-.823.667-1.49 1.489-1.49zM1.488 9.569c.775 0 1.41.59 1.483 1.345l.007.144v1.618a1.489 1.489 0 11-2.968-.172V11.23a1.489 1.489 0 011.48-1.66zm20.768 0c.773 0 1.41.59 1.482 1.345l.006.144v1.618a1.489 1.489 0 11-2.977 0l.01-.176v-1.266a1.489 1.489 0 011.478-1.665zM6.489 5c.774 0 1.41.59 1.482 1.345l.007.144v5.265l-.002-.001-.005.133a1.489 1.489 0 11-2.961-.315V6.66A1.489 1.489 0 016.489 5zm10.642-.286c.774 0 1.41.59 1.482 1.346l.007.143v1.618a1.489 1.489 0 11-2.977 0l.01-.176V6.38a1.489 1.489 0 011.478-1.665zM11.878 0a1.489 1.489 0 011.478 1.67v1.255a1.489 1.489 0 11-2.967.182V1.489C10.39.667 11.056 0 11.878 0z" fill="#000" fill-rule="evenodd"/></svg>