<?xml version="1.0" encoding="UTF-8"?>
<svg version="1.1" width="18px" height="15px" viewBox="0 0 18 15" xmlns="http://www.w3.org/2000/svg">
    <g fill="none" fill-rule="evenodd">
        <g transform="translate(-3 -5)" stroke="#000">
            <path d="m12.003 19.5c9.9e-6 2e-7 1.98e-5 5e-7 2.97e-5 8e-7l1.123e-4 -9.21e-5c0.21116-0.13578 0.99237-0.64792 1.4107-0.93609 0.93933-0.64701 1.8626-1.336 2.7247-2.0539 1.3945-1.1612 2.4947-2.2878 3.1897-3.329 0.12063-0.18071 0.22823-0.35779 0.31942-0.52532 0.8763-1.6609 1.0922-3.2962 0.5668-4.6159-0.33347-1.0021-1.1777-1.8252-2.301-2.2948-1.8254-0.69728-4.202 0.1519-5.5096 1.932l-0.39532 0.53812-0.4051-0.53079c-1.3175-1.7262-3.5284-2.5974-5.4471-1.9286-1.0907 0.33671-1.9059 1.1768-2.3801 2.4115-0.51614 1.2942-0.29679 2.9297 0.56832 4.4714 0.23627 0.40825 0.55902 0.84744 0.96096 1.3123 0.66723 0.77164 1.5349 1.5948 2.5608 2.4521 1.2677 1.0593 3.6913 2.8114 4.1234 3.1043-0.039142 0.026218-0.020071 0.0142 0.013136-0.0071516zm-0.032334 0.026532c-0.0081173 0.0055862-0.016549 0.012178-0.02426 0.019888l0.02426-0.019888zm0.027952-0.026558c-0.035129 0.02352-0.050434 0.034063-0.049188 0.033735 0.091292 0.007922 0.11455 0.022182 0.10508 0.012713-0.017996-0.017996-0.049834-0.035905-0.082286-0.044018-0.010748-0.0026871-0.0060853-0.0024421 0.026386-0.0024294z"/>
        </g>
    </g>
</svg>
