<?xml version="1.0" encoding="UTF-8"?>
<svg width="24px" height="24px" viewBox="0 0 24 24" version="1.1" xmlns="http://www.w3.org/2000/svg" xmlns:xlink="http://www.w3.org/1999/xlink">
    <g stroke="none" stroke-width="1" fill="none" fill-rule="evenodd">
        <g transform="translate(2.500000, 4.000000)" stroke="#000000">
            <path d="M1.39762824,8.16922556 C2.73214897,10.4947019 8.75328531,15.2619666 9.45802361,15.4914088 C9.41052961,15.4800283 9.4165397,15.4787695 9.34657266,15.5183572 C9.39706975,15.4897853 9.46996989,15.446468 9.5583382,15.392327 C9.76784692,15.2639663 10.0378499,15.0912245 10.3355193,14.893856 C11.1152888,14.376833 11.9644279,13.772676 12.7915148,13.1337545 C15.0757491,11.3691921 16.8078609,9.64674098 17.595677,8.18344167 C18.5252491,6.40304002 18.7545945,4.64742542 18.1962678,3.23039296 C17.8409421,2.15138974 16.9433495,1.26704801 15.7498478,0.762827776 C13.8124306,0.014987363 11.2925144,0.924879013 9.90493055,2.83360047 L9.50817259,3.37936959 L9.10151444,2.84093671 C7.70391086,0.990449431 5.3594252,0.0569537412 3.32450841,0.773685977 C2.16487461,1.13543534 1.29767542,2.03858532 0.793865879,3.36421368 C0.244822161,4.75545264 0.47733983,6.51046661 1.39762873,8.16922799 Z"></path>
        </g>
    </g>
</svg>
