<?xml version="1.0" encoding="UTF-8"?>
<svg xmlns="http://www.w3.org/2000/svg" width="24px" height="24px" viewBox="0 0 24 24" version="1.1">
    <path d="M15.2210526,6.36111111 L19.6736842,11.0833333 L15.2210526,15.8055556 L15.2210526,14.8611111 L15.2210526,14.1055556 L14.4631579,13.9166667 C13.7052632,13.7277778 12.9473684,13.6333333 12.1894737,13.6333333 C9.25263158,13.6333333 6.50526316,14.8611111 4.51578947,16.8444444 C6.69473684,8.53333333 13.4210526,8.06111111 14.2736842,8.06111111 L15.2210526,8.06111111 L15.2210526,7.11666667 L15.2210526,6.36111111 L15.2210526,6.36111111 Z M14.2736842,7.11666667 C12.1894737,7.21111111 3.66315789,8.62777778 3,21 C4.51578947,17.2222222 8.11578947,14.6722222 12.1894737,14.6722222 C12.8526316,14.6722222 13.5157895,14.7666667 14.2736842,14.8611111 L14.2736842,18.1666667 L21,11.0833333 L14.2736842,4 L14.2736842,7.11666667 Z"
          id="share-icon" fill="#000000" fill-rule="nonzero"/>
</svg>
