<svg width="24" height="24" viewBox="0 0 24 24" xmlns="http://www.w3.org/2000/svg" xmlns:xlink="http://www.w3.org/1999/xlink"><defs><path d="M.806 16.375l.394-1.673-.394-1.726c-.01-.051-.11-.09-.23-.09-.123 0-.22.039-.23.09L0 14.702l.345 1.67c.01.052.108.09.23.09.123.003.22-.036.23-.087zm2.46.925l.334-2.58-.333-3.997c-.01-.102-.135-.18-.287-.18-.151 0-.276.08-.284.18L2.4 14.72l.296 2.581c.008.1.133.18.284.18.152.003.277-.077.287-.18zm2.455-.041L6 14.722l-.28-5.319c-.007-.124-.156-.224-.337-.224-.184 0-.33.098-.338.224L4.8 14.722l.247 2.54c.008.124.155.221.338.221.182-.002.328-.1.336-.224zm2.451-.037l.228-2.5-.228-5.358c-.005-.148-.174-.263-.384-.263-.21 0-.38.117-.385.263L7.2 14.722l.203 2.5c.005.147.174.263.385.263.21-.002.377-.116.384-.263zm2.447-.031l.181-2.467-.181-6.144c-.005-.168-.196-.306-.429-.306-.232 0-.426.136-.428.306L9.6 14.72l.162 2.468c.005.166.196.305.428.305.233 0 .426-.134.429-.302zm1.714.304l8.574.005c1.71 0 3.093-1.332 3.093-2.973 0-1.644-1.384-2.976-3.093-2.976-.424 0-.828.083-1.195.231C19.467 9.102 17.128 7 14.278 7c-.698 0-1.38.131-1.98.356-.232.087-.296.175-.298.35v9.438c.002.18.15.334.333.351z" id="a"/></defs><use fill="#000" xlink:href="#a" fill-rule="evenodd"/></svg>