<?xml version="1.0" encoding="UTF-8"?>
<svg width="18px" height="15px" viewBox="0 0 18 15" version="1.1" xmlns="http://www.w3.org/2000/svg" xmlns:xlink="http://www.w3.org/1999/xlink">
    <!-- Generator: Sketch 55.1 (78136) - https://sketchapp.com -->
    <title>Mask</title>
    <desc>Created with Sketch.</desc>
    <defs>
        <path d="M8.70047752,14.899999 C8.50047733,14.6999969 2.70847187,10.9939587 0.911470176,7.88892672 C0.0124693289,6.28691021 -0.287530954,4.48389162 0.311469611,2.98187614 C0.811470082,1.67986273 1.70947093,0.67885241 3.00847215,0.277848278 C5.30547432,-0.523159977 7.70147658,0.67885241 9.0004778,2.38086995 C10.3984791,0.477850339 12.9944816,-0.523159977 15.0914835,0.277848278 C16.2904847,0.778853441 17.2884856,1.67986273 17.688486,2.88187511 C18.2874866,4.38389059 17.9874863,6.18690917 17.0894854,7.88892672 C15.2914837,11.1939608 9.59947836,14.6999969 9.29947808,14.899999 C9.19947799,15 9.09947789,15 9.0004778,15 C8.90047771,15 8.80047761,15 8.70047752,14.899999 Z" id="path-1"></path>
    </defs>
    <g id="Symbols" stroke="none" stroke-width="1" fill="none" fill-rule="evenodd">
        <g id="Icons-/-Heart-/-Filled">
            <g>
                <mask id="mask-2" fill="white">
                    <use xlink:href="#path-1"></use>
                </mask>
                <use id="Mask" fill="#F64D43" xlink:href="#path-1"></use>
            </g>
        </g>
    </g>
</svg>