<svg width="24" height="24" viewBox="0 0 24 24" xmlns="http://www.w3.org/2000/svg"><path d="M6.036 8.726a.605.605 0 01.837 0l1.942 1.94-4.306 4.305a3.21 3.21 0 000 4.535 3.208 3.208 0 004.535 0l4.306-4.304 1.924 1.925a.589.589 0 010 .836l-4.126 4.126A6.51 6.51 0 016.528 24a6.514 6.514 0 01-4.618-1.91c-2.547-2.548-2.547-6.692 0-9.238zm8.025-1.137a.591.591 0 01.837 0l1.569 1.569a.589.589 0 010 .836l-6.468 6.469a.594.594 0 01-.839 0l-1.567-1.568a.592.592 0 010-.836zM17.472 0c1.743 0 3.383.679 4.616 1.912A6.489 6.489 0 0124 6.528c0 1.744-.68 3.383-1.912 4.616l-4.047 4.046a.589.589 0 01-.836 0l-1.922-1.922 4.34-4.34a3.21 3.21 0 000-4.535 3.21 3.21 0 00-4.535 0l-4.34 4.34-1.94-1.938a.59.59 0 010-.836l4.047-4.047A6.487 6.487 0 0117.472 0z" fill="#000" fill-rule="evenodd"/></svg>