<svg width="24" height="24" viewBox="0 0 24 24" xmlns="http://www.w3.org/2000/svg"><path d="M12 0C5.373 0 0 5.35 0 11.95c0 5.066 3.16 9.394 7.625 11.135-.109-.944-.198-2.4.04-3.433.216-.934 1.402-5.94 1.402-5.94s-.356-.719-.356-1.771c0-1.662.968-2.902 2.173-2.902 1.027 0 1.52.768 1.52 1.682 0 1.023-.65 2.558-.997 3.984-.286 1.19.603 2.164 1.778 2.164 2.134 0 3.773-2.243 3.773-5.469 0-2.862-2.064-4.859-5.017-4.859-3.418 0-5.422 2.548-5.422 5.184 0 1.023.395 2.124.888 2.724a.355.355 0 01.08.344c-.09.374-.297 1.19-.336 1.358-.05.216-.178.265-.405.157-1.502-.698-2.44-2.872-2.44-4.633 0-3.767 2.746-7.23 7.931-7.23 4.158 0 7.398 2.952 7.398 6.906 0 4.121-2.608 7.436-6.223 7.436-1.214 0-2.36-.63-2.745-1.377l-.751 2.842c-.267 1.043-.997 2.341-1.491 3.138 1.126.344 2.31.531 3.555.531 6.627 0 12-5.35 12-11.95C24 5.35 18.627 0 12 0z" fill="#000" fill-rule="evenodd"/></svg>