<svg width="24" height="24" viewBox="0 0 24 24" xmlns="http://www.w3.org/2000/svg" xmlns:xlink="http://www.w3.org/1999/xlink"><defs><path d="M17.4 0c1.181 0 2.13.077 2.9.305a5.03 5.03 0 011.69.879c.764.587 1.302 1.422 1.535 2.014.47 1.194.475 2.549.475 3.402v10.8c0 .853-.005 2.208-.475 3.402-.233.592-.771 1.427-1.535 2.014-.44.34-.967.664-1.69.878-.77.229-1.719.306-2.9.306H6.6c-1.181 0-2.13-.077-2.9-.306a5.028 5.028 0 01-1.69-.878c-.764-.588-1.302-1.422-1.535-2.014C.04 19.7.003 18.46 0 17.605V6.6c0-.853.005-2.208.475-3.402.233-.592.771-1.427 1.535-2.014.44-.34.967-.664 1.69-.879C4.383.103 5.21.02 6.214.003L6.6 0h10.8zm-5.399 13.171c-.747 0-1.38.244-1.74.624a1.103 1.103 0 00-.318.69c-.06.561-.027 1.044.04 1.816.062.736.18 1.717.336 2.716.11.71.2 1.094.281 1.369.133.445.627.835 1.401.835s1.268-.39 1.4-.835c.082-.275.172-.659.283-1.37.155-.998.273-1.98.336-2.715.066-.772.1-1.255.04-1.815a1.104 1.104 0 00-.32-.691c-.36-.38-.992-.624-1.739-.624zM11.98 2.66c-4.594.013-8.358 3.74-8.415 8.333-.046 3.721 2.33 6.904 5.646 8.07a.113.113 0 00.15-.122c-.044-.29-.085-.58-.123-.865a.29.29 0 00-.17-.229 7.37 7.37 0 01-4.423-6.82c.038-3.996 3.302-7.255 7.299-7.287 4.085-.033 7.42 3.281 7.42 7.36a7.37 7.37 0 01-4.424 6.748.29.29 0 00-.17.228c-.038.286-.079.576-.122.865a.113.113 0 00.15.123c3.284-1.156 5.646-4.29 5.646-7.964 0-4.662-3.8-8.453-8.464-8.44zm-.196 2.793c-2.991.116-5.391 2.582-5.43 5.576a5.651 5.651 0 002.472 4.744.111.111 0 00.173-.098 8.09 8.09 0 01-.01-.965.35.35 0 00-.11-.274 4.562 4.562 0 01-1.443-3.457 4.586 4.586 0 014.391-4.447 4.579 4.579 0 014.755 4.57 4.562 4.562 0 01-1.446 3.334.35.35 0 00-.11.274c.018.315.011.62-.01.964a.111.111 0 00.174.1 5.652 5.652 0 002.472-4.672 5.66 5.66 0 00-5.878-5.65zm.22 2.994a1.964 1.964 0 100 3.928 1.964 1.964 0 000-3.928z" id="a"/></defs><use fill="#000" xlink:href="#a" fill-rule="evenodd"/></svg>