<svg width="24" height="24" viewBox="0 0 24 24" xmlns="http://www.w3.org/2000/svg" xmlns:xlink="http://www.w3.org/1999/xlink"><defs><path d="M19.098 10.638C15.23 8.341 8.85 8.13 5.158 9.251a1.122 1.122 0 11-.652-2.148C8.744 5.816 15.79 6.064 20.244 8.708a1.122 1.122 0 01-1.146 1.93zm-.126 3.403a.936.936 0 01-1.287.308c-3.225-1.982-8.143-2.557-11.958-1.399a.937.937 0 01-1.167-.623.937.937 0 01.624-1.167c4.358-1.322 9.776-.682 13.48 1.594.44.271.578.847.308 1.287zm-1.469 3.267a.747.747 0 01-1.028.25c-2.818-1.723-6.365-2.112-10.542-1.158a.748.748 0 11-.333-1.458c4.571-1.045 8.492-.595 11.655 1.338a.748.748 0 01.248 1.028zM12 0C5.373 0 0 5.373 0 12c0 6.628 5.373 12 12 12 6.628 0 12-5.372 12-12 0-6.627-5.372-12-12-12z" id="a"/></defs><use fill="#000" xlink:href="#a" fill-rule="evenodd"/></svg>