<svg width="24" height="24" viewBox="0 0 24 24" xmlns="http://www.w3.org/2000/svg" xmlns:xlink="http://www.w3.org/1999/xlink"><defs><path d="M21.184 5.122a5.016 5.016 0 002.16-2.757c-.965.58-2.02.99-3.12 1.212a4.887 4.887 0 00-5.407-1.227c-1.88.752-3.117 2.591-3.121 4.64.002.382.045.763.128 1.135A13.91 13.91 0 011.68 2.91a4.941 4.941 0 00-.672 2.509 4.73 4.73 0 001.808 4.154A14.969 14.969 0 01.208 8.95v.063c.17 2.445 1.956 4.46 4.336 4.893a3.53 3.53 0 01-1.104.175c-.28 0-.559-.029-.832-.09.66 2.04 2.523 3.43 4.64 3.466A9.697 9.697 0 010 19.522a13.851 13.851 0 0014.28.5c4.493-2.49 7.287-7.266 7.288-12.456 0-.216-.016-.432-.016-.649A10.019 10.019 0 0024 4.337a9.64 9.64 0 01-2.816.785z" id="a"/></defs><use fill="#000" xlink:href="#a" fill-rule="evenodd"/></svg>