<svg width="24" height="24" viewBox="0 0 24 24" xmlns="http://www.w3.org/2000/svg"><path d="M23.988 6.892c-.107 2.34-1.738 5.546-4.894 9.614-3.263 4.25-6.024 6.374-8.282 6.374-1.399 0-2.583-1.294-3.55-3.882l-1.937-7.117C4.606 9.295 3.836 8 3.013 8c-.18 0-.808.378-1.884 1.132L0 7.675a305.372 305.372 0 003.503-3.13c1.58-1.368 2.765-2.087 3.555-2.16 1.868-.18 3.018 1.1 3.45 3.838.466 2.955.788 4.792.97 5.512.538 2.45 1.13 3.675 1.778 3.675.502 0 1.257-.795 2.263-2.385 1.005-1.59 1.543-2.8 1.616-3.631.143-1.372-.396-2.06-1.616-2.06-.575 0-1.167.132-1.777.394 1.18-3.87 3.433-5.75 6.76-5.644 2.466.073 3.628 1.675 3.486 4.808" fill="#000" fill-rule="evenodd"/></svg>