<svg width="24" height="24" viewBox="0 0 24 24" xmlns="http://www.w3.org/2000/svg"><path d="M12.239 3c1.294.006 7.465.054 9.138.505a3.015 3.015 0 012.121 2.135C24 7.524 24 11.455 24 11.455s0 3.93-.502 5.814a3.016 3.016 0 01-2.121 2.135c-1.792.484-8.748.504-9.337.505h-.08c-.589 0-7.545-.021-9.337-.505A3.016 3.016 0 01.502 17.27C.06 15.613.007 12.377 0 11.617v-.325c.006-.76.06-3.996.5-5.652a3.015 3.015 0 012.122-2.135c1.673-.451 7.844-.5 9.138-.504zM9.545 7.887v7.137l6.273-3.568-6.273-3.569z" fill="#000" fill-rule="evenodd"/></svg>